<svg t="1705808301147" class="icon" viewBox="0 0 1024 1024" version="1.1" xmlns="http://www.w3.org/2000/svg" p-id="18801" width="200" height="200"><path d="M22.311657 420.524612c-10.023284 8.991792-17.588587 22.285562-17.588587 37.752836 0 27.185152 22.001083 49.212842 49.155537 49.212842l98.397031 0 0 467.197608c0 27.213805 22.00006 49.15656 49.155537 49.15656l163.104775 0c27.127847 0 49.15349-21.971407 49.15349-49.15656l0-196.72857 196.708104 0 0 196.72857c0 27.185152 21.912056 49.15656 49.127907 49.15656l163.073052 0c27.158547 0 49.157583-21.942755 49.157583-49.15656l0-467.197608 98.367355 0c27.211758 0 49.154513-22.026666 49.154513-49.212842 0-15.46625-7.504928-28.760021-18.822694-37.752836-168.776961-142.224212-488.427118-420.36907-488.427118-420.36907S192.293049 278.3004 22.311657 420.524612zM432.279842 64.149019" p-id="18802"></path></svg>
