<svg t="1711207108934" class="icon" viewBox="0 0 1024 1024" version="1.1" xmlns="http://www.w3.org/2000/svg" p-id="24067" width="200" height="200"><path d="M435.2 742.4c0 22.528-6.144 43.52-16.896 61.952a306.688 306.688 0 0 0 288.256-54.272c-101.888-24.576-210.432-92.672-271.872-211.968-64-124.416-50.176-238.08-23.552-316.416A305.664 305.664 0 0 0 204.8 511.488c0 17.92 2.048 35.328 4.608 52.224 42.496 1.536 82.432 19.968 110.08 51.2A128 128 0 0 1 435.2 742.4z" opacity=".3" p-id="24068"></path><path d="M791.552 709.12c-88.576 0-235.52-47.616-311.296-194.56-83.456-161.792-17.92-304.128 19.456-360.96C307.2 160.256 153.6 317.952 153.6 511.488c0 20.48 2.048 39.936 5.12 59.392 14.848-4.608 30.208-7.68 46.08-7.68 1.536 0 3.072 0.512 4.608 0.512-2.56-16.896-4.608-34.304-4.608-52.224 0-134.656 85.504-248.32 206.336-290.304-26.624 78.336-40.448 192.512 23.552 316.416 61.44 119.296 169.984 187.392 271.872 211.968a305.3056 305.3056 0 0 1-287.744 54.784c-9.216 16.384-21.504 30.208-36.864 41.472 40.448 15.36 84.48 24.576 130.56 24.576 125.44 0 235.52-64.512 300.032-162.304-6.656 1.024-13.824 1.024-20.992 1.024z" p-id="24069"></path><path d="M384 742.4c0-42.496-34.304-76.8-76.8-76.8h-13.824c-17.92-30.72-50.688-51.2-88.576-51.2-56.32 0-102.4 46.08-102.4 102.4s46.08 102.4 102.4 102.4h102.4c42.496 0 76.8-34.304 76.8-76.8z" p-id="24070"></path></svg>
