<svg t="1711206920532" class="icon" viewBox="0 0 1260 1024" version="1.1" xmlns="http://www.w3.org/2000/svg" p-id="21521" width="200" height="200"><path d="M1008.958597 901.602031l-17.800477 1.654026-17.64295 0.551342h-14.413661a42.45335 42.45335 0 0 1-30.875163-12.602107 43.319745 43.319745 0 0 1-12.523345-31.03269 42.610876 42.610876 0 0 1 28.03969-40.956849l7.876317-2.126606 7.876317-0.630105h14.019845a204.154142 204.154142 0 0 0 143.506499-59.623722 193.993693 193.993693 0 0 0 56.945774-141.773709 199.979694 199.979694 0 0 0-158.235213-196.907931 48.518114 48.518114 0 0 1-32.76548-32.214137A354.434274 354.434274 0 0 0 630.10774 87.348358 359.317591 359.317591 0 0 0 277.327492 385.939543a48.518114 48.518114 0 0 1-32.607953 32.292901 201.476194 201.476194 0 0 0 10.002923 395.391123l16.303976 1.890317 15.280056 0.551342h14.64995a44.658719 44.658719 0 0 1 42.847165 36.309822 43.71356 43.71356 0 0 1-27.724636 48.360588l-7.876318 2.126605-7.876317 0.708869h-13.389739A288.115683 288.115683 0 0 1 0.002363 615.219137a302.450581 302.450581 0 0 1 63.010538-181.155296 241.409122 241.409122 0 0 1 133.030997-89.238674 469.192216 469.192216 0 0 1 144.451658-237.864779 433.197446 433.197446 0 0 1 569.694023 0 414.92439 414.92439 0 0 1 141.064842 234.320437 263.856626 263.856626 0 0 1 136.260287 93.019306A373.416199 373.416199 0 0 1 1260.213116 615.140374a288.509499 288.509499 0 0 1-251.254519 286.461657zM569.223808 716.744866a42.21706 42.21706 0 0 1 28.827321-14.64995 42.768402 42.768402 0 0 1 30.953926 9.845396 36.388585 36.388585 0 0 1 14.019845 43.792324l-3.859396 8.427659-4.962079 7.876318L452.181734 1008.168602a45.840166 45.840166 0 0 1-32.135374 15.752635 41.271902 41.271902 0 0 1-27.488347-11.184371 47.257903 47.257903 0 0 1-13.074687-46.470271l3.46558-7.482501z m224.002461 0a42.374587 42.374587 0 0 1 28.827321-14.728713 42.847166 42.847166 0 0 1 31.03269 9.845396 36.467349 36.467349 0 0 1 13.941081 43.792324l-3.859395 8.427659-4.647027 7.797554-182.179217 236.289516a46.155219 46.155219 0 0 1-32.292901 15.752635 41.508192 41.508192 0 0 1-27.488347-11.184371 47.257903 47.257903 0 0 1-12.995923-46.470271l3.386816-7.482501z" fill="#2c2c2c" p-id="21522"></path></svg>
