<svg t="1711206892681" class="icon" viewBox="0 0 1024 1024" version="1.1" xmlns="http://www.w3.org/2000/svg" p-id="20516" width="200" height="200"><path d="M782.9504 819.2H241.0496A408.439467 408.439467 0 0 1 102.4 512C102.4 285.7984 285.7984 102.4 512 102.4s409.6 183.3984 409.6 409.6c0 122.299733-53.521067 232.0384-138.683733 307.2z m1.024 68.266667c15.325867 0 30.3104-5.051733 41.8816-15.121067A476.740267 476.740267 0 0 0 989.866667 512c0-263.918933-213.947733-477.866667-477.866667-477.866667S34.133333 248.081067 34.133333 512c0 143.803733 63.488 272.725333 164.010667 360.3456A63.488 63.488 0 0 0 240.0256 887.466667h543.9488zM68.266667 955.733333a34.133333 34.133333 0 0 1 34.133333-34.133333h819.2a34.133333 34.133333 0 1 1 0 68.266667H102.4a34.133333 34.133333 0 0 1-34.133333-34.133334zM512 238.933333a273.066667 273.066667 0 0 0-273.066667 273.066667 34.133333 34.133333 0 1 1-68.266666 0C170.666667 323.4816 323.4816 170.666667 512 170.666667s341.333333 152.814933 341.333333 341.333333a34.133333 34.133333 0 1 1-68.266666 0 273.066667 273.066667 0 0 0-273.066667-273.066667z m34.133333 102.4v282.2144A68.266667 68.266667 0 0 1 512 750.933333a68.266667 68.266667 0 0 1-34.133333-127.3856V341.333333a34.133333 34.133333 0 1 1 68.266666 0z" fill="#202425" p-id="20517"></path></svg>
