<svg t="1705808682142" class="icon" viewBox="0 0 1091 1024" version="1.1" xmlns="http://www.w3.org/2000/svg" p-id="30834" width="200" height="200"><path d="M415.4374 410.800213a41.039105 41.039105 0 0 0-40.779968 41.052744 41.011827 41.011827 0 0 0 40.916356 40.779968h3.682472V559.190197c0 22.640384 18.275972 40.916356 40.916356 40.916356s40.916356-18.275972 40.916356-40.916356v-66.966436l103.927544-0.545551V559.190197c0 22.640384 18.275972 40.916356 40.916356 40.916356s40.916356-18.275972 40.916355-40.916356v-67.921151L1009.270112 489.632392v36.961108c0 4.637187-20.458178 34.096963-117.975493 61.64731C799.505594 614.427278 676.620139 628.748002 545.551412 628.748002s-253.954182-14.320725-345.743207-40.370804C102.29089 560.826851 81.832712 531.367075 81.832712 526.729888c0-22.640384-18.275972-40.916356-40.916356-40.916356s-40.916356 18.275972-40.916356 40.916356C0 653.02504 282.732019 710.580714 545.551412 710.580714s545.551412-57.555674 545.551412-183.850826v-119.202983l-675.665424 3.273308zM293.370272 942.849227C120.839638 913.525839 81.832712 867.699521 81.832712 860.470964c0-22.640384-18.275972-40.916356-40.916356-40.916356s-40.916356 18.275972-40.916356 40.916356c0 95.471497 152.072456 141.434204 279.731486 162.983485 2.318594 0.409164 4.637187 0.545551 6.955781 0.545551 19.639851 0 36.961108-14.047949 40.234417-34.096963a40.916356 40.916356 0 0 0-33.551412-47.05381zM1050.186468 819.554608c-22.640384 0-40.916356 18.275972-40.916356 40.916356 0 5.72829-26.186468 40.779968-150.57219 70.103357-21.958444 5.182738-35.59723 27.277571-30.414491 49.236015a41.011827 41.011827 0 0 0 49.236015 30.414491C1019.226425 976.809803 1091.102824 926.482685 1091.102824 860.470964c0-22.640384-18.275972-40.916356-40.916356-40.916356zM371.656899 756.952584h81.832712v251.635589h-81.832712zM485.131593 770.045818h81.832712v251.635588h-81.832712zM598.606287 770.045818h81.832711v251.635588h-81.832711zM712.217368 756.952584h81.832712v251.635589h-81.832712zM753.952051 369.611082h335.514118v-81.832712h-335.514118V113.06553L711.808205 0H396.888652l-40.234417 113.474694V369.611082h397.297816z m-81.832712-81.832712H612.38146v-92.061801h-118.111881v92.061801h-55.646244V127.522643L454.717102 81.832712h200.217368l17.184869 46.099094V287.77837z" p-id="30835"></path></svg>
