<svg t="1705808658745" class="icon" viewBox="0 0 1117 1024" version="1.1" xmlns="http://www.w3.org/2000/svg" p-id="29825" width="200" height="200"><path d="M493.381818 186.181818H27.927273a27.927273 27.927273 0 0 0-27.927273 27.927273v781.963636a27.927273 27.927273 0 0 0 27.927273 27.927273h465.454545a27.927273 27.927273 0 0 0 27.927273-27.927273V214.109091a27.927273 27.927273 0 0 0-27.927273-27.927273z m-46.545454 735.418182a27.927273 27.927273 0 0 1-27.927273 27.927273H102.4a27.927273 27.927273 0 0 1-27.927273-27.927273V288.581818a27.927273 27.927273 0 0 1 27.927273-27.927273h316.509091a27.927273 27.927273 0 0 1 27.927273 27.927273z" p-id="29826"></path><path d="M251.345455 381.672727L121.018182 642.327273h83.781818l139.636364-260.654546H251.345455z" p-id="29827"></path><path d="M307.2 567.854545L158.254545 828.509091h90.484364L400.290909 567.854545H307.2z" p-id="29828"></path><path d="M167.563636 567.854545l-46.545454 74.472728h232.727273l46.545454-74.472728H167.563636z" p-id="29829"></path><path d="M186.181818 0v130.327273h37.236364v55.854545h111.709091v-55.854545h37.236363V0H186.181818z" p-id="29830"></path><path d="M1089.163636 186.181818H623.709091a27.927273 27.927273 0 0 0-27.927273 27.927273v781.963636a27.927273 27.927273 0 0 0 27.927273 27.927273h465.454545a27.927273 27.927273 0 0 0 27.927273-27.927273V214.109091a27.927273 27.927273 0 0 0-27.927273-27.927273z m-46.545454 735.418182a27.927273 27.927273 0 0 1-27.927273 27.927273H698.181818a27.927273 27.927273 0 0 1-27.927273-27.927273V288.581818a27.927273 27.927273 0 0 1 27.927273-27.927273h316.509091a27.927273 27.927273 0 0 1 27.927273 27.927273z" p-id="29831"></path><path d="M847.127273 381.672727L716.8 642.327273h83.781818l139.636364-260.654546H847.127273z" p-id="29832"></path><path d="M902.981818 567.854545L754.036364 828.509091h90.484363L996.072727 567.854545H902.981818z" p-id="29833"></path><path d="M763.345455 567.854545l-46.545455 74.472728h232.727273l46.545454-74.472728H763.345455z" p-id="29834"></path><path d="M781.963636 0v130.327273h37.236364v55.854545h111.709091v-55.854545h37.236364V0H781.963636z" p-id="29835"></path></svg>
