<svg t="1711205165323" class="icon" viewBox="0 0 1330 1024" version="1.1" xmlns="http://www.w3.org/2000/svg" p-id="14023" width="200" height="200"><path d="M248.598885 582.029238H82.917861a27.690853 27.690853 0 1 0 0 55.227008h165.681024a27.690853 27.690853 0 0 0 0-55.227008zM1242.839726 582.029238H1077.158702a27.690853 27.690853 0 1 0 0 55.227008h165.681024a27.690853 27.690853 0 0 0 0-55.227008z" fill="#F6BB42" p-id="14024"></path><path d="M1053.489985 179.970432l-117.260706 117.260706A27.536155 27.536155 0 0 0 974.594259 336.214909l117.879496-117.570101a27.690853 27.690853 0 0 0-38.98377-38.674376z" fill="#FFCE54" p-id="14025"></path><path d="M635.187941 29.759158V195.440182a27.690853 27.690853 0 0 0 55.227008 0V29.759158a27.690853 27.690853 0 1 0-55.227008 0z" fill="#F6BB42" p-id="14026"></path><path d="M233.283832 218.644808l117.106009 117.106008a27.536155 27.536155 0 0 0 38.98377-38.98377L272.267603 179.970432a27.690853 27.690853 0 0 0-38.983771 38.674376zM379.163576 720.174107a301.196035 301.196035 0 0 1-20.729465-110.454016 304.444683 304.444683 0 1 1 587.850505 110.454016z" fill="#FFCE54" p-id="14027"></path><path d="M662.878794 277.739253A331.980838 331.980838 0 0 0 360.909271 747.710262h603.320255a331.980838 331.980838 0 0 0-301.350732-469.971009z m264.068635 414.744001H398.655461a276.75383 276.75383 0 1 1 541.441255-82.763163 270.56593 270.56593 0 0 1-13.149287 82.763163z" fill="#F6BB42" p-id="14028"></path><path d="M584.756555 957.325377l58.475656 58.475655a27.536155 27.536155 0 0 0 19.491885 8.04427 27.536155 27.536155 0 0 0 19.491885-8.04427l58.630353-58.475655a27.84555 27.84555 0 0 0 0-39.138468 27.84555 27.84555 0 0 0-39.138468 0l-11.447615 11.447615v-99.006401a27.690853 27.690853 0 0 0-27.536155-27.690853 27.690853 27.690853 0 0 0-27.690853 27.690853V930.253314l-11.447615-11.447615a27.690853 27.690853 0 0 0-38.98377 0 27.690853 27.690853 0 0 0 0.154697 38.519678z" fill="#ED5564" p-id="14029"></path><path d="M1298.066734 692.483254H27.690853a27.690853 27.690853 0 1 0 0 55.227008h1270.375881a27.690853 27.690853 0 1 0 0-55.227008z" fill="#656D78" p-id="14030"></path></svg>
