<svg t="1711205144475" class="icon" viewBox="0 0 1330 1024" version="1.1" xmlns="http://www.w3.org/2000/svg" p-id="12955" width="200" height="200"><path d="M248.598885 582.029238H82.917861a27.690853 27.690853 0 1 0 0 55.227008h165.681024a27.690853 27.690853 0 0 0 0-55.227008zM1242.839726 582.029238H1077.158702a27.690853 27.690853 0 1 0 0 55.227008h165.681024a27.690853 27.690853 0 1 0 0-55.227008z" fill="#F6BB42" p-id="12956"></path><path d="M1053.489985 179.970432l-117.260706 117.260706A27.536155 27.536155 0 0 0 974.594259 336.214909l117.879496-117.570101a27.690853 27.690853 0 0 0-38.98377-38.674376z" fill="#FFCE54" p-id="12957"></path><path d="M635.187941 29.759158V195.440182a27.690853 27.690853 0 0 0 55.227008 0V29.759158a27.690853 27.690853 0 1 0-55.227008 0z" fill="#F6BB42" p-id="12958"></path><path d="M233.283832 218.644808l117.106009 117.106008a27.536155 27.536155 0 0 0 38.98377-38.98377L272.267603 179.970432a27.690853 27.690853 0 0 0-38.983771 38.674376zM379.163576 720.174107a301.196035 301.196035 0 0 1-20.729465-110.454016 304.444683 304.444683 0 1 1 608.734668 0 301.041338 301.041338 0 0 1-20.574768 110.454016z" fill="#FFCE54" p-id="12959"></path><path d="M662.878794 277.739253A331.980838 331.980838 0 0 0 360.909271 747.710262h603.320255a331.980838 331.980838 0 0 0-301.350732-469.971009z m264.068635 414.744001H398.655461a276.75383 276.75383 0 1 1 541.441255-82.763163 270.56593 270.56593 0 0 1-13.149287 82.763163z" fill="#F6BB42" p-id="12960"></path><path d="M741.001032 869.611894l-58.630353-58.475656a27.072063 27.072063 0 0 0-19.491885-8.198968 27.536155 27.536155 0 0 0-19.491886 8.044271l-58.630353 58.630353a27.690853 27.690853 0 0 0 0 39.138467 27.690853 27.690853 0 0 0 38.983771 0l11.447615-11.447615v99.006401a27.690853 27.690853 0 0 0 27.690853 27.690853 27.690853 27.690853 0 0 0 27.536155-27.690853v-99.006401l11.447615 11.447615a27.84555 27.84555 0 0 0 39.138468 0 27.84555 27.84555 0 0 0 0-39.138467z" fill="#ED5564" p-id="12961"></path><path d="M1298.066734 692.483254H27.690853a27.690853 27.690853 0 1 0 0 55.227008h1270.375881a27.690853 27.690853 0 1 0 0-55.227008z" fill="#656D78" p-id="12962"></path></svg>
