<svg t="1711206646840" class="icon" viewBox="0 0 1045 1024" version="1.1" xmlns="http://www.w3.org/2000/svg" p-id="16261" width="200" height="200"><path d="M279.274667 307.456a32.405333 32.405333 0 0 1-22.954667-9.493333l-61.269333-61.141334a32.384 32.384 0 0 1 22.976-55.338666c8.597333 0 16.853333 3.413333 22.954666 9.493333l61.269334 61.141333a32.426667 32.426667 0 0 1-22.954667 55.338667z m536.085333 535.04a32.426667 32.426667 0 0 1-22.976-9.493333l-61.269333-61.141334a32.405333 32.405333 0 0 1 22.976-55.338666 32.512 32.512 0 0 1 22.976 9.493333l61.269333 61.12a32.405333 32.405333 0 0 1-22.976 55.36zM313.130667 415.125333h37.994666v144.32c0 20.096 4.650667 34.901333 13.994667 44.394667 9.088 9.536 23.914667 14.293333 44.501333 14.293333 20.138667 0 34.986667-4.757333 44.501334-14.293333 9.322667-9.92 13.994667-24.746667 13.994666-44.394667v-144.32h37.994667v143.658667c0 30.058667-8.426667 53.077333-25.344 69.077333-16.896 15.573333-40.618667 23.36-71.168 23.36-30.741333 0-54.357333-7.68-70.826667-23.04-17.088-16.213333-25.664-39.317333-25.664-69.397333V415.146667z" fill="#333333" p-id="16262"></path><path d="M409.621333 657.685333c-32.341333 0-57.664-8.32-75.264-24.789333-18.410667-17.429333-27.733333-42.368-27.733333-74.112v-150.144h50.986667v150.784c0 18.261333 4.096 31.68 12.16 39.872 7.829333 8.192 21.205333 12.330667 39.850666 12.330667 18.261333 0 31.701333-4.16 39.893334-12.373334 7.978667-8.490667 12.096-21.930667 12.096-39.829333v-150.762667h50.986666v150.122667c0 31.786667-9.173333 56.576-27.349333 73.770667-18.133333 16.704-43.562667 25.130667-75.626667 25.130666z m-90.005333-236.074666v137.173333c0 28.053333 7.957333 49.813333 23.658667 64.682667 15.082667 14.08 37.418667 21.248 66.346666 21.248 28.714667 0 51.157333-7.274667 66.752-21.632 15.424-14.592 23.253333-36.245333 23.253334-64.298667v-137.173333h-25.002667v137.813333c0 21.312-5.290667 37.76-15.744 48.853333-10.88 10.88-27.392 16.32-49.237333 16.32-22.336 0-38.912-5.461333-49.216-16.277333-10.453333-10.645333-15.786667-27.093333-15.786667-48.874667v-137.813333h-25.024z m210.88-6.485334H571.733333l63.68 188.714667h0.96l63.701334-188.714667h41.237333l-82.517333 231.530667h-45.824L530.496 415.146667z" fill="#333333" p-id="16263"></path><path d="M663.424 653.141333H608.426667l-87.146667-244.48h55.146667l59.477333 176.32 59.52-176.32h55.125333l-87.125333 244.48z m-45.824-12.970666h36.650667l77.888-218.56h-27.370667l-63.68 188.714666h-9.322667l-2.474666-4.416-62.186667-184.298666h-27.392l77.888 218.56z" fill="#333333" p-id="16264"></path><path d="M516.693333 879.509333c-203.050667 0-368.213333-164.864-368.213333-367.509333 0-202.666667 165.162667-367.509333 368.213333-367.509333S884.906667 309.333333 884.906667 512c0 98.176-38.293333 190.464-107.84 259.84a366.186667 366.186667 0 0 1-260.373334 107.669333z m0-670.165333c-167.210667 0-303.253333 135.765333-303.253333 302.656 0 166.890667 136.042667 302.656 303.253333 302.656a301.76 301.76 0 0 0 214.421334-88.661333A300.629333 300.629333 0 0 0 819.946667 512c0-166.890667-136.042667-302.656-303.253334-302.656z" fill="#333333" p-id="16265"></path><path d="M754.090667 307.456a32.533333 32.533333 0 0 1-30.016-20.010667 32.362667 32.362667 0 0 1 7.04-35.328l61.269333-61.141333a32.490667 32.490667 0 0 1 52.992 35.328 32.405333 32.405333 0 0 1-7.04 10.517333l-61.269333 61.141334a32.384 32.384 0 0 1-22.976 9.493333zM218.026667 842.496a32.533333 32.533333 0 0 1-30.016-20.010667 32.362667 32.362667 0 0 1 7.04-35.349333l61.269333-61.12a32.512 32.512 0 0 1 55.466667 22.912c0 8.597333-3.434667 16.853333-9.536 22.933333l-61.269334 61.141334a32.384 32.384 0 0 1-22.954666 9.493333zM180.949333 544.426667H94.314667A32.533333 32.533333 0 0 1 62.72 512a32.405333 32.405333 0 0 1 31.573333-32.426667h86.656A32.533333 32.533333 0 0 1 212.544 512a32.405333 32.405333 0 0 1-31.573333 32.426667z m758.122667 0h-86.634667A32.533333 32.533333 0 0 1 820.842667 512a32.405333 32.405333 0 0 1 31.573333-32.426667h86.656A32.533333 32.533333 0 0 1 970.666667 512a32.405333 32.405333 0 0 1-31.573334 32.426667zM516.693333 209.344a32.533333 32.533333 0 0 1-32.469333-32.426667V90.453333a32.384 32.384 0 0 1 32.469333-32.426666 32.512 32.512 0 0 1 32.490667 32.426666v86.464a32.405333 32.405333 0 0 1-32.490667 32.426667z m0 756.629333a32.533333 32.533333 0 0 1-32.469333-32.426666v-86.464a32.384 32.384 0 0 1 32.469333-32.426667 32.512 32.512 0 0 1 32.490667 32.426667v86.464a32.405333 32.405333 0 0 1-32.490667 32.426666z" fill="#333333" p-id="16266"></path></svg>
