<svg t="1700711481886" class="icon" viewBox="0 0 1024 1024" version="1.1" xmlns="http://www.w3.org/2000/svg" p-id="3714" width="200" height="200"><path d="M16 848a32 32 0 0 0 64 0 256 256 0 0 1 256-256 255.36 255.36 0 0 1 105.152 23.04c4.992-21.248 12.096-41.536 21.12-60.992A320 320 0 0 0 16 848zM336 80a192 192 0 1 0 0 384 192 192 0 0 0 0-384z m0 320.256a128.256 128.256 0 1 1 0-256.576 128.256 128.256 0 0 1 0 256.576zM1002.624 635.072c-2.752-15.488-11.52-25.408-22.208-25.216h-2.24c-36.672 0-66.56-31.616-66.56-70.528 0-12.736 5.76-26.88 5.76-26.944a32.96 32.96 0 0 0-10.112-38.592l-0.64-0.512-64-37.632-0.64-0.32a32.576 32.576 0 0 0-36.288 7.68c-7.808 8.512-32.448 30.656-52.288 30.656-20.096 0-44.864-22.656-52.736-31.296a33.472 33.472 0 0 0-24.192-10.368 30.528 30.528 0 0 0-12.096 2.496l-0.704 0.384-66.304 38.464-0.64 0.512a32.896 32.896 0 0 0-10.176 38.528c0.064 0.128 5.824 14.272 5.824 27.008 0 38.848-29.888 70.528-66.56 70.528h-2.24c-10.688-0.32-19.456 9.664-22.208 25.152-0.256 1.28-5.376 30.272-5.376 53.12s5.12 51.968 5.376 53.184c2.752 15.296 11.264 25.216 21.76 25.216h2.688c36.672 0 66.56 31.616 66.56 70.528 0 12.8-5.76 26.816-5.76 26.944a33.024 33.024 0 0 0 10.048 38.592l0.64 0.448 62.784 37.184 0.64 0.32a31.744 31.744 0 0 0 36.352-8.064c7.36-8.448 33.024-32.64 53.504-32.64 20.672 0 45.952 24 53.888 33.28a32.256 32.256 0 0 0 24.256 10.944 29.44 29.44 0 0 0 12.096-2.56l0.64-0.32 65.152-38.144 0.64-0.448a32.896 32.896 0 0 0 10.176-38.528c-0.064-0.192-5.824-14.208-5.824-27.008 0-38.848 29.888-70.528 66.56-70.528h2.24c10.688 0.192 19.456-9.664 22.208-25.216 0.256-1.28 5.376-30.336 5.376-53.184s-5.12-51.904-5.376-53.12z m-71.104 91.072c-41.344 2.24-74.368 38.784-74.368 83.392 0 14.848 5.44 29.12 6.656 32.128l-49.344 28.992h-0.064a3.712 3.712 0 0 1-1.6-0.448 142.08 142.08 0 0 0-18.304-17.344c-15.36-12.096-30.016-18.304-43.52-18.304-13.312 0-27.84 6.08-43.136 17.92-10.24 8-17.344 16-18.24 17.024a2.688 2.688 0 0 1-1.472 0.448h-0.128l-47.616-28.288c1.152-2.88 6.656-17.216 6.656-32.192 0-44.48-33.024-81.088-74.368-83.328-0.64-3.52-3.904-23.168-3.904-37.952s3.264-34.432 3.904-37.952c41.344-2.24 74.368-38.784 74.368-83.392 0-14.848-5.376-29.12-6.656-32.128l50.304-29.376h0.192c0.832 0 1.6 0.384 1.856 0.512 0.832 0.96 7.872 8.704 18.048 16.384 15.04 11.456 29.312 17.28 42.432 17.28 12.864 0 27.072-5.76 41.984-16.896 10.112-7.616 17.216-15.168 17.984-16.064a3.584 3.584 0 0 1 1.856-0.512h0.192l48.576 28.672a94.72 94.72 0 0 0-6.656 32.128c0 44.544 33.024 81.152 74.368 83.392 0.64 3.52 3.904 23.168 3.904 37.952s-3.328 34.432-3.904 37.952z" fill="#dbdbdb" p-id="3715"></path><path d="M679.744 688a73.536 72.256 90 1 0 144.512 0 73.536 72.256 90 1 0-144.512 0Z" fill="#dbdbdb" p-id="3716"></path></svg>
