<svg t="1711206968627" class="icon" viewBox="0 0 1024 1024" version="1.1" xmlns="http://www.w3.org/2000/svg" p-id="22699" width="200" height="200"><path d="M994.432 886.016H608.992c-16.896 0-29.632 12.96-29.632 30.208 0 17.216 12.736 30.208 29.632 30.208h385.44c16.864 0 29.6-12.992 29.6-30.208 0-17.216-12.736-30.208-29.6-30.208z m-481.792 0H30.88c-16.928 0-29.664 12.96-29.664 30.208 0 17.216 12.736 30.208 29.664 30.208h481.76c16.864 0 29.6-12.992 29.6-30.208 0-17.216-12.736-30.208-29.6-30.208z m0-152c-16.896 0-29.632 12.928-29.632 30.144s12.736 30.24 29.632 30.24h433.6c16.864 0 29.6-13.024 29.6-30.24s-12.736-30.176-29.6-30.176h-433.6z m-433.6 0c-16.896 0-29.632 12.928-29.632 30.144s12.736 30.24 29.6 30.24h337.28c16.864 0 29.6-12.992 29.6-30.24a29.824 29.824 0 0 0-8.48-21.536 28.704 28.704 0 0 0-21.12-8.64H79.008z m306.432-132.576c0 17.216 12.704 30.176 29.6 30.176h578.144c16.896 0 29.632-12.96 29.632-30.176 0-17.216-12.736-30.208-29.632-30.208H415.072c-16.896 0-29.6 12.992-29.6 30.208z m-355.808 30.176H318.752c16.896 0 29.632-12.96 29.632-30.176 0-17.216-12.736-30.208-29.632-30.208H29.664c-16.896 0-29.632 12.992-29.632 30.208 0 16.64 13.28 30.176 29.632 30.176z m52.832-149.824c16.896 0 29.632-12.96 29.632-30.176 0.064-64.64 51.488-117.056 114.88-117.12 4.608 0 12.192 1.088 19.648 2.176l2.144 0.32v32.704c0 17.184 12.8 30.208 29.696 30.208 16.864 0 29.6-12.992 29.6-30.208v-52.8c17.312-103.36 105.184-178.88 208-178.88 102.88 0 190.72 75.52 208.064 178.88v52.8c0 17.184 12.704 30.208 29.6 30.208s29.632-12.96 29.632-30.176V336.96l2.144-0.32c7.424-1.088 15.104-2.208 19.616-2.208 63.424 0.096 114.784 52.48 114.88 117.12 0 17.184 12.8 30.176 29.664 30.176 16.896 0 29.632-12.992 29.568-30.176 0-97.92-78.112-177.536-174.144-177.536-8.832 0-17.6 1.088-26.176 3.2l-2.336 0.608-0.64-2.368a270.4 270.4 0 0 0-96.544-142.72 266.752 266.752 0 0 0-163.392-55.168c-121.184 0-225.632 79.104-259.84 196.896l-0.64 2.24-2.304-0.512a125.024 125.024 0 0 0-26.24-3.2c-96 0-174.144 79.648-174.144 177.536 0 17.536 13.024 31.264 29.632 31.264z" p-id="22700"></path></svg>
