<svg t="1705808567681" class="icon" viewBox="0 0 1152 1024" version="1.1" xmlns="http://www.w3.org/2000/svg" p-id="27945" width="200" height="200"><path d="M257.79021 549.338661q-1.022977-9.206793-1.534466-18.413586t-0.511489-18.413586q0-53.194805 19.948052-100.251748t54.729271-81.838162 81.326673-54.729271 99.74026-19.948052q40.919081 0 77.746254 12.275724t68.027972 33.758242 54.729271 51.148851 37.85015 64.447552q-26.597403 3.068931-51.66034 8.183816t-48.591409 11.252747q-20.45954-36.827173-56.263736-59.332667t-81.838162-22.505495q-32.735265 0-60.867133 12.275724t-49.614386 33.758242-33.758242 50.125874-12.275724 61.378621l0 8.183816q0 4.091908 1.022977 9.206793-15.344655 2.045954-34.781219 6.649351t-48.07992 9.718282zM154.46953 246.537463q-19.436563-18.413586-19.436563-45.010989t19.436563-45.010989q18.413586-19.436563 45.010989-19.436563t45.010989 19.436563l45.010989 45.010989q19.436563 18.413586 19.436563 45.010989t-19.436563 46.033966q-18.413586 18.413586-45.010989 18.413586t-45.010989-18.413586zM511.488511 192.31968q-26.597403 0-45.010989-18.925075t-18.413586-45.522478l0-64.447552q0-26.597403 18.413586-45.010989t45.010989-18.413586 45.522478 18.413586 18.925075 45.010989l0 64.447552q0 26.597403-18.925075 45.522478t-45.522478 18.925075zM822.473526 294.617383q-18.413586 18.413586-45.010989 18.413586t-46.033966-18.413586q-18.413586-19.436563-18.413586-46.033966t18.413586-45.010989l46.033966-45.010989q18.413586-19.436563 45.010989-19.436563t45.010989 19.436563q19.436563 18.413586 19.436563 45.010989t-19.436563 45.010989zM848.047952 448.063936q72.631369 0 122.757243 17.902098t83.884116 47.056943 53.194805 67.004995 29.154845 76.723277 12.275724 75.7003 2.557443 65.470529q0 42.965035-18.925075 83.884116t-54.729271 72.631369-86.953047 50.637363-115.596404 18.925075l-513.534466 0q-64.447552 0-109.458541-16.879121t-72.631369-45.010989-39.896104-64.959041-12.275724-77.746254 15.856144-77.234765 42.965035-63.936064 63.424575-43.476523 78.257742-15.856144q59.332667 0 106.901099 30.689311t72.11988 80.815185q0-50.125874 18.413586-100.763237t58.821179-91.044955 105.366633-65.470529 158.04995-25.062937zM191.296703 512.511489q0 26.597403-18.413586 45.010989t-45.010989 18.413586l-64.447552 0q-26.597403 0-45.010989-18.413586t-18.413586-45.010989 18.413586-45.522478 45.010989-18.925075l64.447552 0q26.597403 0 45.010989 18.925075t18.413586 45.522478z" p-id="27946"></path></svg>
