<svg t="1705808468011" class="icon" viewBox="0 0 1025 1024" version="1.1" xmlns="http://www.w3.org/2000/svg" p-id="22961" width="200" height="200"><path d="M515.451851 803.276868c0-159.757781 129.475473-289.130213 289.198907-289.130213a288.511974 288.511974 0 0 1 219.349242 100.750213V121.300967A121.289518 121.289518 0 0 0 902.710482 0H121.30099A121.289518 121.289518 0 0 0 0.000023 121.358211v781.352248a121.289518 121.289518 0 0 0 121.358211 121.289518h496.412328a288.580667 288.580667 0 0 1-102.318711-220.723109zM204.625995 212.342523a34.346664 34.346664 0 0 1 34.346664-34.346664h546.11195a34.346664 34.346664 0 0 1 34.346663 34.346664 34.346664 34.346664 0 0 1-34.346663 34.346663h-546.11195a34.346664 34.346664 0 0 1-34.346664-34.346663z m306.830194 194.631093a34.346664 34.346664 0 0 1-34.346663 34.346663h-238.136867a34.346664 34.346664 0 0 1-34.346664-34.346663 34.346664 34.346664 0 0 1 34.346664-34.346664h238.136867a34.346664 34.346664 0 0 1 34.346663 34.346664z" p-id="22962"></path><path d="M804.650758 582.748391c-121.793269 0-220.528478 98.735209-220.528478 220.528477s98.735209 220.528478 220.528478 220.528478S1025.167787 925.070137 1025.167787 803.276868 926.444027 582.748391 804.650758 582.748391z m100.06328 319.584255a28.702362 28.702362 0 0 1-40.483268 0l-79.890339-79.855993a28.542077 28.542077 0 0 1-8.311893-21.592602v-114.191207a28.62222 28.62222 0 0 1 57.24444 0v103.726923l71.44106 71.441061a28.702362 28.702362 0 0 1 0 40.471818z" p-id="22963"></path></svg>
